<svg xmlns="http://www.w3.org/2000/svg" viewBox="0 0 1024 1024" width="1024" height="1024">
  <defs>
    <linearGradient id="sky" gradientUnits="userSpaceOnUse" x1="0" y1="0" x2="0" y2="1024">
      <stop offset="0" stop-color="#0a1224"/>
      <stop offset="0.55" stop-color="#182642"/>
      <stop offset="1" stop-color="#31486e"/>
    </linearGradient>
    <radialGradient id="moon" cx="0.42" cy="0.38" r="0.75">
      <stop offset="0" stop-color="#f6f8fd"/>
      <stop offset="0.6" stop-color="#e2e9f7"/>
      <stop offset="1" stop-color="#c3d0e8"/>
    </radialGradient>
    <radialGradient id="glow" cx="0.5" cy="0.5" r="0.5">
      <stop offset="0" stop-color="#c9d9f2" stop-opacity="0.4"/>
      <stop offset="1" stop-color="#c9d9f2" stop-opacity="0"/>
    </radialGradient>
    <mask id="cres">
      <circle cx="512" cy="392" r="150" fill="white"/>
      <circle cx="586" cy="336" r="150" fill="black"/>
    </mask>
    <linearGradient id="spec" x1="0" y1="0" x2="1" y2="0">
      <stop offset="0" stop-color="#f08a8a"/>
      <stop offset="0.18" stop-color="#f0a071"/>
      <stop offset="0.36" stop-color="#f0c27e"/>
      <stop offset="0.52" stop-color="#dcd884"/>
      <stop offset="0.70" stop-color="#a6e389"/>
      <stop offset="0.86" stop-color="#7ee0c8"/>
      <stop offset="1" stop-color="#86d8ff"/>
    </linearGradient>
  </defs>
  <rect width="1024" height="1024" fill="url(#sky)"/>
  <ellipse cx="812" cy="150" rx="430" ry="320" fill="#ffffff" opacity="0.05"/>
  <circle cx="300" cy="212" r="6" fill="#e8eefb" opacity="0.9"/>
  <circle cx="726" cy="170" r="4.5" fill="#e8eefb" opacity="0.8"/>
  <circle cx="246" cy="420" r="4" fill="#e8eefb" opacity="0.7"/>
  <circle cx="800" cy="330" r="5" fill="#e8eefb" opacity="0.75"/>
  <circle cx="640" cy="120" r="3.5" fill="#e8eefb" opacity="0.6"/>
  <path d="M206 300l7 18 18 7-18 7-7 18-7-18-18-7 18-7z" fill="#eef3fc" opacity="0.9"/>
  <path d="M772 470l5.5 14 14 5.5-14 5.5-5.5 14-5.5-14-14-5.5 14-5.5z" fill="#eef3fc" opacity="0.8"/>
  <circle cx="512" cy="392" r="300" fill="url(#glow)"/>
  <circle cx="512" cy="392" r="150" fill="url(#moon)" mask="url(#cres)"/>
  <path d="M250 688 Q512 882 774 688" fill="none" stroke="url(#spec)" stroke-width="62" stroke-linecap="round"/>
  <circle cx="774" cy="688" r="33" fill="#ffffff"/>
  <circle cx="774" cy="688" r="33" fill="none" stroke="#0a1428" stroke-width="5" opacity="0.3"/>
</svg>
