<svg xmlns="http://www.w3.org/2000/svg" viewBox="0 0 1024 1024" width="1024" height="1024">
  <defs>
    <linearGradient id="sky" x1="0" y1="0" x2="0" y2="1">
      <stop offset="0" stop-color="#18335a"/>
      <stop offset="0.55" stop-color="#2f74ad"/>
      <stop offset="1" stop-color="#74c0ee"/>
    </linearGradient>
    <radialGradient id="sun" cx="0.5" cy="0.42" r="0.62">
      <stop offset="0" stop-color="#FFF6DB"/>
      <stop offset="0.55" stop-color="#FFD873"/>
      <stop offset="1" stop-color="#F9B23C"/>
    </radialGradient>
    <radialGradient id="glow" cx="0.5" cy="0.5" r="0.5">
      <stop offset="0" stop-color="#FFE6A8" stop-opacity="0.55"/>
      <stop offset="1" stop-color="#FFE6A8" stop-opacity="0"/>
    </radialGradient>
    <linearGradient id="spec" x1="0" y1="0" x2="1" y2="0">
      <stop offset="0" stop-color="#f08a8a"/>
      <stop offset="0.18" stop-color="#f0a071"/>
      <stop offset="0.36" stop-color="#f0c27e"/>
      <stop offset="0.52" stop-color="#dcd884"/>
      <stop offset="0.70" stop-color="#a6e389"/>
      <stop offset="0.86" stop-color="#7ee0c8"/>
      <stop offset="1" stop-color="#86d8ff"/>
    </linearGradient>
  </defs>
  <rect width="1024" height="1024" fill="url(#sky)"/>
  <ellipse cx="812" cy="150" rx="430" ry="320" fill="#ffffff" opacity="0.12"/>
  <circle cx="512" cy="392" r="300" fill="url(#glow)"/>
  <g stroke="#FFD873" stroke-width="18" stroke-linecap="round" opacity="0.92">
    <line x1="684" y1="392" x2="724" y2="392"/>
    <line x1="634" y1="270" x2="662" y2="242"/>
    <line x1="512" y1="220" x2="512" y2="180"/>
    <line x1="390" y1="270" x2="362" y2="242"/>
    <line x1="340" y1="392" x2="300" y2="392"/>
  </g>
  <circle cx="512" cy="392" r="150" fill="url(#sun)"/>
  <path d="M250 688 Q512 882 774 688" fill="none" stroke="url(#spec)" stroke-width="62" stroke-linecap="round"/>
  <circle cx="774" cy="688" r="33" fill="#ffffff"/>
  <circle cx="774" cy="688" r="33" fill="none" stroke="#13345a" stroke-width="5" opacity="0.2"/>
</svg>
